<?xml version="1.0" standalone="no"?><!DOCTYPE svg PUBLIC "-//W3C//DTD SVG 1.1//EN" "http://www.w3.org/Graphics/SVG/1.1/DTD/svg11.dtd"><svg t="1680077181743" class="icon" viewBox="0 0 1024 1024" version="1.1" xmlns="http://www.w3.org/2000/svg" p-id="2744" xmlns:xlink="http://www.w3.org/1999/xlink" width="200" height="200"><path d="M850.2 681.4c-7.3-4.7-8.7-14.3-1.8-19.5 43.8-33 95-133.3 29.2-222.9-33.7-45.9-93.9-61.2-149-54.3-43.6 5.5-84.1 24.9-105.7 54.3-56.1 76.3-30.8 168.9 27.8 220.5 6.7 5.9 5.6 15.4-2.2 20-10.7 6.3-20.1 13.5-28.6 21.4 13.5 37.7 19.6 77.5 22.2 117.5 1.3 19.1 1.8 38.3 1.9 57.4 0.1 19.2-14.9 34.6-34.1 34.6-13 0-26.7 0-40.7-0.1 1.4 0.2 2.8 0.4 4.3 0.4 60.7 0.2 136.8 0 209.6-0.1 48.1-0.1 94.7-0.2 134.6-0.1 13.3 0 23.7-10.2 23.6-22.8-0.4-74.7-9.4-152.9-91.1-206.3z" fill="#00A9DC" p-id="2745"></path><path d="M550.2 887.9c0.6-41.7 9.4-131.1 69.7-186.9-18.5-51.5-50.7-99.1-107.4-138-10.5-7.2-12.5-21.7-2.5-29.6 37.8-29.9 79.2-96.5 86.1-174.2-16.6 8.5-30 13-27.7 4.1 1.3-5.2 13.3-34.8 4.2-37.1-20.9-5.2-62.9-18.8-64.9-67.2 0 0-0.7-22.2 1.1-37.8 2.5-20.7 11-36.9 24-48.6-95.5-98.1-282.3-71.2-348.2 22.9-10.9 15.5-19.5 31.5-26.3 47.7-43.9 104.5-6.8 218.8 66.4 286.6 9.7 9 8.1 23.4-3.2 30.4-97.7 61-128.7 176.7-137.9 258.5-2.5 22.2-3.5 42-3.7 57.4-0.3 19.3 14.6 34.6 33.8 34.7 132.3 0.6 315-0.4 455.6-0.4-11.2-2-19.3-11.2-19.1-22.5z" fill="#99C236" p-id="2746"></path><path d="M644 875.8c-0.1-19-0.7-42-1.9-61.2-2.6-40-8.7-76-22.2-113.7-60.3 55.8-69.2 145.3-69.7 186.9-0.2 11.3 8 20.5 19.2 22.4 13.9 0 27.6 0 40.7 0.1 19 0.2 34.1-15.3 33.9-34.5z" fill="#029F40" p-id="2747"></path><path d="M552.1 195.6c11.1 15.9 19.7 32 26.5 48.1 16.5 39.3 20.9 78.7 17.6 115.6 15.4-7.8 33.5-19 44.6-26 6.8-4.3 14.5-6.6 22.5-6.5 29.2 0.2 102.1 0.6 129.3-1 68.9-4 111.2-20.1 118.5-69.3 1.3-8.7 0.2-26.4 0-35.2-0.9-38.7-28.8-66.2-78.9-70.2-60.9-4.8-180.9-5.4-244.3 0-22.3 1.9-41.1 9.2-54.9 21.6 6.8 7 13.2 14.6 19.1 22.9z" fill="#FB536C" p-id="2748"></path><path d="M507.8 259.1c2 48.4 43.9 61.9 64.9 67.2 9.1 2.3-2.9 31.9-4.2 37.1-2.3 8.9 11.1 4.4 27.7-4.1 3.3-36.9-1.1-76.3-17.6-115.6-6.8-16.1-15.4-32.2-26.5-48.1-5.8-8.3-12.3-15.9-19.1-22.9-13 11.7-21.5 27.9-24 48.6-1.9 15.6-1.2 37.8-1.2 37.8z" fill="#8F3694" p-id="2749"></path></svg>